<svg width="16" height="16" viewBox="0 0 16 16" fill="none" xmlns="http://www.w3.org/2000/svg">
<path d="M7.89696 6.2456L9.81818 8.13052V8.03508C9.81818 7.56048 9.62662 7.10532 9.28564 6.76973C8.94467 6.43414 8.48221 6.2456 7.99999 6.2456H7.89696ZM5.2909 6.7228L6.2303 7.64736C6.19999 7.77262 6.18181 7.89788 6.18181 8.03508C6.18181 8.50968 6.37337 8.96484 6.71435 9.30043C7.05532 9.63602 7.51778 9.82455 7.99999 9.82455C8.13333 9.82455 8.26666 9.80666 8.39393 9.77683L9.33333 10.7014C8.92727 10.8982 8.47878 11.0175 7.99999 11.0175C7.19631 11.0175 6.42554 10.7033 5.85725 10.144C5.28895 9.58467 4.96969 8.82607 4.96969 8.03508C4.96969 7.56385 5.0909 7.12245 5.2909 6.7228ZM1.93939 3.4242L3.32121 4.7842L3.59393 5.05262C2.59393 5.82806 1.80606 6.84209 1.33333 8.03508C2.38181 10.6537 4.96969 12.5088 7.99999 12.5088C8.93939 12.5088 9.83636 12.3298 10.6545 12.0077L10.9151 12.2582L12.6848 14L13.4545 13.2424L2.70909 2.66666M7.99999 5.05262C8.80368 5.05262 9.57445 5.36684 10.1427 5.92616C10.711 6.48548 11.0303 7.24408 11.0303 8.03508C11.0303 8.41683 10.9515 8.78666 10.8121 9.12069L12.5879 10.8684C13.497 10.1228 14.2242 9.14455 14.6667 8.03508C13.6182 5.41648 11.0303 3.56139 7.99999 3.56139C7.15151 3.56139 6.33939 3.71052 5.57575 3.97894L6.8909 5.26139C7.23636 5.13017 7.60606 5.05262 7.99999 5.05262Z" fill="#BA977D"/>
</svg>
