<svg width="20" height="20" viewBox="0 0 20 20" fill="none" xmlns="http://www.w3.org/2000/svg">
<path d="M19.091 9.0909H10.9092V0.909078C10.9092 0.667972 10.8134 0.436741 10.6429 0.266253C10.4725 0.0957656 10.2412 -1.33514e-05 10.0001 -1.33514e-05C9.75902 -1.33514e-05 9.52779 0.0957656 9.3573 0.266253C9.18681 0.436741 9.09103 0.667972 9.09103 0.909078V9.0909H0.909213C0.668107 9.0909 0.436876 9.18668 0.266389 9.35716C0.095901 9.52765 0.00012207 9.75888 0.00012207 9.99999C0.00012207 10.2411 0.095901 10.4723 0.266389 10.6428C0.436876 10.8133 0.668107 10.9091 0.909213 10.9091H9.09103V19.0909C9.09103 19.332 9.18681 19.5632 9.3573 19.7337C9.52779 19.9042 9.75902 20 10.0001 20C10.2412 20 10.4725 19.9042 10.6429 19.7337C10.8134 19.5632 10.9092 19.332 10.9092 19.0909V10.9091H19.091C19.3321 10.9091 19.5634 10.8133 19.7339 10.6428C19.9043 10.4723 20.0001 10.2411 20.0001 9.99999C20.0001 9.75888 19.9043 9.52765 19.7339 9.35716C19.5634 9.18668 19.3321 9.0909 19.091 9.0909Z" fill="black"/>
</svg>
